<?xml version="1.0" standalone="no"?>
<!DOCTYPE svg PUBLIC "-//W3C//DTD SVG 20010904//EN"
 "http://www.w3.org/TR/2001/REC-SVG-20010904/DTD/svg10.dtd">
<svg version="1.0" xmlns="http://www.w3.org/2000/svg"
 width="800.000000pt" height="533.000000pt" viewBox="0 0 800.000000 533.000000"
 preserveAspectRatio="xMidYMid meet">

<g transform="translate(0.000000,533.000000) scale(0.100000,-0.100000)"
fill="#FFFFFF" stroke="none">
<path d="M4177 4383 c-4 -3 -6 -49 -5 -102 1 -91 2 -93 7 -31 11 121 19 0 10
-155 -5 -77 -7 -643 -6 -1258 l2 -1119 186 -3 c144 -3 191 -1 205 9 15 12 16
15 3 27 -8 8 -31 14 -51 15 -44 1 -85 26 -97 57 -5 12 -9 127 -9 254 -1 228 0
233 21 248 12 8 24 15 28 15 7 0 149 -176 149 -185 0 -5 20 -29 60 -70 11 -12
20 -26 20 -32 0 -6 7 -13 15 -17 8 -3 15 -12 15 -20 0 -9 9 -20 20 -26 11 -6
20 -16 20 -23 0 -7 9 -18 20 -25 12 -7 18 -17 15 -21 -2 -5 2 -12 11 -15 9 -4
14 -9 11 -12 -3 -4 0 -13 8 -21 44 -43 21 -99 -45 -109 -26 -4 -36 -11 -36
-25 0 -10 3 -19 6 -20 3 -1 153 -2 333 -3 256 -1 331 1 339 11 7 9 7 13 -1 13
-6 0 -10 5 -9 11 2 6 -8 13 -22 15 -54 8 -70 15 -117 53 -46 36 -183 190 -183
206 0 4 -9 14 -19 23 -10 10 -92 109 -181 222 -202 256 -200 253 -200 260 0 9
57 50 68 50 6 0 17 11 26 25 9 14 21 23 26 20 5 -3 14 4 20 15 6 11 17 20 25
20 8 0 19 9 25 20 6 11 17 20 24 20 8 0 21 11 30 25 9 14 22 25 29 25 7 0 18
9 25 20 7 11 18 20 25 20 7 0 18 9 25 20 7 11 18 20 25 20 7 0 18 9 25 20 7
11 16 20 21 20 6 0 25 14 43 30 18 17 38 30 44 30 7 0 15 7 18 16 3 8 10 12
16 9 5 -3 10 -1 10 5 0 6 5 8 10 5 6 -3 10 -2 10 4 0 6 16 8 38 5 25 -4 33 -3
24 4 -11 7 -9 10 7 15 13 3 19 1 14 -5 -3 -7 -1 -8 5 -4 7 4 12 16 12 27 0 18
-9 19 -260 19 -224 0 -260 -2 -260 -15 0 -8 5 -15 11 -15 5 0 8 -3 5 -8 -2 -4
15 -6 40 -5 24 1 44 -2 44 -7 0 -6 3 -9 8 -9 21 4 31 -4 42 -30 9 -23 9 -34 0
-53 -14 -25 -90 -108 -101 -108 -3 0 -26 -18 -50 -40 -24 -22 -47 -40 -50 -40
-4 0 -26 -18 -50 -40 -24 -22 -48 -40 -53 -40 -5 0 -19 -10 -32 -22 -61 -60
-70 -68 -79 -68 -6 0 -16 -9 -23 -20 -7 -11 -18 -20 -25 -20 -7 0 -18 -9 -25
-20 -7 -11 -18 -20 -25 -20 -7 0 -18 -9 -25 -20 -7 -11 -19 -20 -27 -20 -13 0
-15 46 -17 343 -1 188 -1 361 1 385 1 26 -2 42 -10 42 -7 0 -9 9 -5 26 4 14 2
31 -3 38 -5 6 -12 29 -15 51 -3 22 -12 68 -21 103 -8 35 -13 68 -9 73 3 5 1 9
-5 9 -7 0 -21 49 -26 95 -1 6 -7 30 -14 54 -7 25 -14 54 -16 65 -1 12 -5 28
-8 36 -13 31 -25 103 -20 116 3 8 0 14 -7 14 -6 0 -10 8 -8 18 1 9 -1 22 -5
29 -4 7 -9 33 -11 58 -2 25 -6 49 -10 52 -3 3 -3 17 0 29 4 16 2 24 -6 24 -8
0 -10 9 -6 25 4 14 3 31 0 37 -4 7 -8 39 -9 72 -4 164 -6 186 -13 186 -5 0
-12 -3 -15 -7z"/>
<path d="M2560 3691 c0 -20 32 -33 75 -29 25 2 45 -1 45 -6 0 -5 3 -6 7 -3 3
4 12 -1 20 -11 9 -11 12 -11 7 -2 -5 12 -3 12 11 -1 12 -12 20 -43 26 -101 10
-92 7 -922 -3 -975 -9 -42 -21 -64 -49 -88 -13 -12 -19 -14 -14 -5 5 9 -1 7
-14 -5 -13 -11 -25 -19 -27 -18 -2 1 -9 1 -16 -1 -7 -3 -25 -7 -40 -10 -16 -4
-28 -13 -28 -21 0 -13 34 -15 231 -15 l230 0 -3 23 c-2 12 -9 21 -17 19 -7 -1
-19 2 -25 7 -7 6 -24 8 -39 5 -15 -2 -27 0 -27 6 0 5 -4 9 -9 7 -11 -3 -71 59
-71 75 -5 190 -3 1035 2 1032 8 -5 43 -106 40 -116 -1 -5 2 -8 7 -8 9 0 32
-56 30 -74 0 -5 4 -12 11 -16 6 -4 12 -17 13 -28 1 -12 5 -22 10 -22 4 0 6 -4
2 -9 -3 -5 -1 -12 5 -16 6 -4 8 -10 5 -15 -3 -4 2 -13 10 -20 8 -7 12 -16 9
-21 -3 -5 0 -9 5 -9 6 0 11 -8 11 -18 0 -10 5 -23 10 -28 6 -6 12 -21 15 -33
2 -13 13 -39 25 -58 11 -19 20 -43 20 -54 0 -10 4 -19 10 -19 5 0 9 -3 8 -7
-1 -5 13 -39 31 -78 19 -38 34 -77 35 -85 1 -8 18 -49 38 -90 50 -104 88 -190
83 -190 -3 0 4 -14 14 -31 11 -18 17 -38 14 -45 -3 -8 0 -14 7 -14 6 0 9 -4 6
-9 -4 -5 -1 -11 4 -13 6 -2 12 -12 14 -23 5 -35 22 -26 45 27 28 63 26 56 35
91 5 15 12 27 18 27 5 0 7 4 4 8 -3 5 10 39 29 76 18 37 33 69 33 72 0 8 54
147 67 174 25 50 48 105 51 119 1 8 8 17 14 21 7 4 11 9 9 11 -1 2 8 23 20 46
11 23 21 51 21 61 0 10 7 27 15 38 8 10 15 27 15 37 0 10 8 29 17 44 10 14 19
35 20 47 2 11 10 30 18 43 8 12 15 29 15 38 0 8 4 15 10 15 5 0 9 3 8 8 -1 4
5 21 12 37 7 17 14 39 15 50 4 29 25 79 30 73 3 -3 7 -270 9 -594 3 -324 7
-602 9 -619 2 -16 12 -73 22 -125 9 -52 18 -106 20 -120 2 -14 8 -40 14 -57 5
-18 8 -33 6 -33 -2 0 2 -18 10 -41 8 -22 14 -43 13 -47 -1 -4 1 -14 5 -22 6
-17 47 -195 52 -225 1 -11 5 -27 8 -35 12 -37 26 -123 21 -131 -3 -6 -1 -16 5
-22 5 -7 10 -22 10 -32 0 -11 5 -42 10 -69 6 -28 8 -58 5 -68 -3 -11 -1 -24 5
-31 5 -7 8 -29 7 -50 -2 -20 1 -37 6 -37 5 0 7 -13 3 -30 -3 -16 -2 -37 4 -47
10 -17 14 839 12 2122 -1 215 -1 398 -1 408 0 15 -13 17 -140 17 l-140 0 -35
-74 c-19 -41 -35 -79 -35 -85 0 -6 -13 -39 -29 -73 -25 -56 -44 -102 -109
-263 -9 -22 -19 -42 -22 -45 -3 -3 -7 -14 -8 -25 -2 -11 -7 -22 -10 -25 -4 -3
-9 -14 -10 -25 -2 -10 -10 -28 -18 -39 -8 -11 -14 -28 -14 -38 0 -10 -4 -18
-10 -18 -5 0 -9 -3 -8 -7 1 -5 -4 -21 -11 -37 -6 -16 -13 -36 -14 -45 -2 -9
-8 -25 -14 -36 -11 -18 -12 -18 -18 10 -4 17 -18 49 -32 73 -13 23 -21 42 -18
42 4 0 -3 16 -15 35 -12 19 -19 35 -16 35 4 0 -1 11 -10 25 -9 14 -13 25 -9
25 3 0 -3 16 -15 35 -12 19 -19 35 -15 35 3 0 -2 17 -13 38 -58 112 -152 334
-146 343 3 5 1 9 -4 9 -12 0 -34 49 -27 61 4 5 1 9 -5 9 -6 0 -8 5 -5 10 3 6
2 10 -3 10 -5 0 -12 9 -15 20 -5 19 -14 20 -276 20 -149 0 -271 -4 -271 -9z"/>
<path d="M4092 1038 c-1 -37 2 -69 7 -72 11 -7 21 18 20 52 0 24 -1 25 -9 7
-6 -15 -9 -8 -12 30 -4 46 -5 45 -6 -17z"/>
</g>
</svg>
